<svg width="126" height="53" viewBox="0 0 126 53" fill="none" xmlns="http://www.w3.org/2000/svg">
<path d="M43.7983 0H32.7784V32.9318H32.3182L9.71591 0H0V52.3636H11.071V19.4062H11.4545L34.2358 52.3636H43.7983V0Z" fill="white"/>
<path d="M34.2253 0V52.3636H44.9639V18.1534H45.3986L58.9497 52.108H66.2622L79.8134 18.2812H80.248V52.3636H90.9867V0H77.3333L62.9128 35.1818H62.2992L47.8787 0H34.2253Z" fill="white"/>
<path d="M99.9506 52.3636C115.905 52.3636 125.57 42.4943 125.57 26.1307C125.57 9.81818 115.905 0 100.104 0H81.3881V52.3636H99.9506ZM92.4591 42.8778V9.4858H99.516C109.334 9.4858 114.524 14.4972 114.524 26.1307C114.524 37.8153 109.334 42.8778 99.4904 42.8778H92.4591Z" fill="white"/>
</svg>
